/* XPM */
static char * illumicon_xpm[] = {
"16 16 121 2",
"  	c None",
". 	c #EAEDDB",
"+ 	c #EFF0E3",
"@ 	c #E2E5CF",
"# 	c #DEE599",
"$ 	c #FBFAEF",
"% 	c #FEFDF6",
"& 	c #FEFDF4",
"* 	c #FEFDF5",
"= 	c #F2F2D9",
"- 	c #FCFDB0",
"; 	c #FEFEB6",
"> 	c #FEFEBD",
", 	c #FEFED0",
"' 	c #FEFEAD",
") 	c #FFFFB0",
"! 	c #DCE184",
"~ 	c #F9FC9F",
"{ 	c #FEFEAC",
"] 	c #FCFE79",
"^ 	c #FCFE97",
"/ 	c #FCFE77",
"( 	c #FBFE7D",
"_ 	c #DFE55E",
": 	c #F7FB91",
"< 	c #FDFE55",
"[ 	c #FDFE58",
"} 	c #FDFE4F",
"| 	c #F5FA60",
"1 	c #DAE15C",
"2 	c #E1E965",
"3 	c #F0F660",
"4 	c #FDFD4C",
"5 	c #FDFD4A",
"6 	c #F6F847",
"7 	c #E2E75A",
"8 	c #C2C75E",
"9 	c #D1D962",
"0 	c #E0E54E",
"a 	c #F9FA44",
"b 	c #E4E857",
"c 	c #B9BE5C",
"d 	c #58584C",
"e 	c #7B8136",
"f 	c #9A9B4B",
"g 	c #A6AB68",
"h 	c #30302E",
"i 	c #31302B",
"j 	c #515134",
"k 	c #B8B993",
"l 	c #A7A97A",
"m 	c #7C7B5B",
"n 	c #66674F",
"o 	c #828279",
"p 	c #2B2B29",
"q 	c #0F0F0D",
"r 	c #1E1D15",
"s 	c #35351B",
"t 	c #403F21",
"u 	c #4B4B2F",
"v 	c #AFAFA6",
"w 	c #ACADA4",
"x 	c #585950",
"y 	c #403E38",
"z 	c #3D3C3D",
"A 	c #424136",
"B 	c #4D4B46",
"C 	c #6D6B61",
"D 	c #222234",
"E 	c #29264A",
"F 	c #2A2A44",
"G 	c #2A2884",
"H 	c #25238E",
"I 	c #312D99",
"J 	c #A9A9BA",
"K 	c #868684",
"L 	c #4D4C66",
"M 	c #0304C8",
"N 	c #0101CF",
"O 	c #0000E9",
"P 	c #0000FF",
"Q 	c #1413E7",
"R 	c #75759B",
"S 	c #8F8FB5",
"T 	c #4F4FB4",
"U 	c #0000E1",
"V 	c #0E0CE4",
"W 	c #0D0EB7",
"X 	c #43427B",
"Y 	c #3A395F",
"Z 	c #18186A",
"` 	c #0303D4",
" .	c #0403F0",
"..	c #0000F9",
"+.	c #4140AA",
"@.	c #515087",
"#.	c #8F90A7",
"$.	c #9B9B95",
"%.	c #93928E",
"&.	c #3637BC",
"*.	c #1B1CED",
"=.	c #7E7DD5",
"-.	c #696A9E",
";.	c #3D3EB9",
">.	c #0E0EEC",
",.	c #555493",
"'.	c #7C7C78",
").	c #979697",
"!.	c #8A8A99",
"~.	c #5654B4",
"{.	c #7F8097",
"].	c #7F7E9D",
"^.	c #60618C",
"/.	c #5254A5",
"(.	c #2727C9",
"_.	c #75758B",
":.	c #86879E",
"<.	c #3E3BD7",
"[.	c #767693",
"}.	c #A2A2A0",
"|.	c #6D6D98",
"              . + @             ",
"          # $ % & * =           ",
"          - ; > , ' ) !         ",
"          ~ { ] ^ / ( _         ",
"          : ^ < [ } | 1         ",
"          2 3 4 5 6 7 8         ",
"            9 0 a b c           ",
"            d e f g             ",
"        h i j k l m n o         ",
"  p q r s t u v w x y z A B C   ",
"  D E F G H I J K L M N O P Q R ",
"    S T U V W X Y Z `  ...+.@.#.",
"      $.%.&.*.=.-.;.P >.,.'.).  ",
"        !.~.{.].^./.(._.        ",
"          :.<.[.}.|.            ",
"                                "};
